<?xml version="1.0"?>
<svg width="380" height="380"
     xmlns="http://www.w3.org/2000/svg"
     xmlns:xlink="http://www.w3.org/1999/xlink">
<rect x="10" y="10" width="40" height="40" style="stroke:black; stroke-width:2; fill:white"/>
<text x="30" y="30" style="text-anchor:middle; dominant-baseline:middle; font-family:Helvetica; font-size:18px; fill:black">2</text>
<rect x="50" y="10" width="40" height="40" style="stroke:black; stroke-width:2; fill:white"/>
<text x="70" y="30" style="text-anchor:middle; dominant-baseline:middle; font-family:Helvetica; font-size:18px; fill:black">7</text>
<rect x="90" y="10" width="40" height="40" style="stroke:black; stroke-width:2; fill:white"/>
<text x="110" y="30" style="text-anchor:middle; dominant-baseline:middle; font-family:Helvetica; font-size:18px; fill:black">1</text>
<rect x="130" y="10" width="40" height="40" style="stroke:black; stroke-width:2; fill:white"/>
<text x="150" y="30" style="text-anchor:middle; dominant-baseline:middle; font-family:Helvetica; font-size:18px; fill:black">4</text>
<rect x="170" y="10" width="40" height="40" style="stroke:black; stroke-width:2; fill:white"/>
<text x="190" y="30" style="text-anchor:middle; dominant-baseline:middle; font-family:Helvetica; font-size:18px; fill:black">9</text>
<rect x="210" y="10" width="40" height="40" style="stroke:black; stroke-width:2; fill:white"/>
<text x="230" y="30" style="text-anchor:middle; dominant-baseline:middle; font-family:Helvetica; font-size:18px; fill:black">6</text>
<rect x="250" y="10" width="40" height="40" style="stroke:black; stroke-width:2; fill:white"/>
<text x="270" y="30" style="text-anchor:middle; dominant-baseline:middle; font-family:Helvetica; font-size:18px; fill:black">5</text>
<rect x="290" y="10" width="40" height="40" style="stroke:black; stroke-width:2; fill:white"/>
<text x="310" y="30" style="text-anchor:middle; dominant-baseline:middle; font-family:Helvetica; font-size:18px; fill:black">8</text>
<rect x="330" y="10" width="40" height="40" style="stroke:black; stroke-width:2; fill:white"/>
<text x="350" y="30" style="text-anchor:middle; dominant-baseline:middle; font-family:Helvetica; font-size:18px; fill:black">3</text>
<rect x="10" y="50" width="40" height="40" style="stroke:black; stroke-width:2; fill:white"/>
<text x="30" y="70" style="text-anchor:middle; dominant-baseline:middle; font-family:Helvetica; font-size:18px; fill:black">9</text>
<rect x="50" y="50" width="40" height="40" style="stroke:black; stroke-width:2; fill:white"/>
<text x="70" y="70" style="text-anchor:middle; dominant-baseline:middle; font-family:Helvetica; font-size:18px; fill:black">6</text>
<rect x="90" y="50" width="40" height="40" style="stroke:black; stroke-width:2; fill:white"/>
<text x="110" y="70" style="text-anchor:middle; dominant-baseline:middle; font-family:Helvetica; font-size:18px; fill:black">8</text>
<rect x="130" y="50" width="40" height="40" style="stroke:black; stroke-width:2; fill:white"/>
<text x="150" y="70" style="text-anchor:middle; dominant-baseline:middle; font-family:Helvetica; font-size:18px; fill:black">3</text>
<rect x="170" y="50" width="40" height="40" style="stroke:black; stroke-width:2; fill:white"/>
<text x="190" y="70" style="text-anchor:middle; dominant-baseline:middle; font-family:Helvetica; font-size:18px; fill:black">1</text>
<rect x="210" y="50" width="40" height="40" style="stroke:black; stroke-width:2; fill:white"/>
<text x="230" y="70" style="text-anchor:middle; dominant-baseline:middle; font-family:Helvetica; font-size:18px; fill:black">5</text>
<rect x="250" y="50" width="40" height="40" style="stroke:black; stroke-width:2; fill:white"/>
<text x="270" y="70" style="text-anchor:middle; dominant-baseline:middle; font-family:Helvetica; font-size:18px; fill:black">4</text>
<rect x="290" y="50" width="40" height="40" style="stroke:black; stroke-width:2; fill:white"/>
<text x="310" y="70" style="text-anchor:middle; dominant-baseline:middle; font-family:Helvetica; font-size:18px; fill:black">7</text>
<rect x="330" y="50" width="40" height="40" style="stroke:black; stroke-width:2; fill:white"/>
<text x="350" y="70" style="text-anchor:middle; dominant-baseline:middle; font-family:Helvetica; font-size:18px; fill:black">2</text>
<rect x="10" y="90" width="40" height="40" style="stroke:black; stroke-width:2; fill:white"/>
<text x="30" y="110" style="text-anchor:middle; dominant-baseline:middle; font-family:Helvetica; font-size:18px; fill:black">4</text>
<rect x="50" y="90" width="40" height="40" style="stroke:black; stroke-width:2; fill:white"/>
<text x="70" y="110" style="text-anchor:middle; dominant-baseline:middle; font-family:Helvetica; font-size:18px; fill:black">5</text>
<rect x="90" y="90" width="40" height="40" style="stroke:black; stroke-width:2; fill:white"/>
<text x="110" y="110" style="text-anchor:middle; dominant-baseline:middle; font-family:Helvetica; font-size:18px; fill:black">3</text>
<rect x="130" y="90" width="40" height="40" style="stroke:black; stroke-width:2; fill:white"/>
<text x="150" y="110" style="text-anchor:middle; dominant-baseline:middle; font-family:Helvetica; font-size:18px; fill:black">8</text>
<rect x="170" y="90" width="40" height="40" style="stroke:black; stroke-width:2; fill:white"/>
<text x="190" y="110" style="text-anchor:middle; dominant-baseline:middle; font-family:Helvetica; font-size:18px; fill:black">7</text>
<rect x="210" y="90" width="40" height="40" style="stroke:black; stroke-width:2; fill:white"/>
<text x="230" y="110" style="text-anchor:middle; dominant-baseline:middle; font-family:Helvetica; font-size:18px; fill:black">2</text>
<rect x="250" y="90" width="40" height="40" style="stroke:black; stroke-width:2; fill:white"/>
<text x="270" y="110" style="text-anchor:middle; dominant-baseline:middle; font-family:Helvetica; font-size:18px; fill:black">9</text>
<rect x="290" y="90" width="40" height="40" style="stroke:black; stroke-width:2; fill:white"/>
<text x="310" y="110" style="text-anchor:middle; dominant-baseline:middle; font-family:Helvetica; font-size:18px; fill:black">1</text>
<rect x="330" y="90" width="40" height="40" style="stroke:black; stroke-width:2; fill:white"/>
<text x="350" y="110" style="text-anchor:middle; dominant-baseline:middle; font-family:Helvetica; font-size:18px; fill:black">6</text>
<rect x="10" y="130" width="40" height="40" style="stroke:black; stroke-width:2; fill:white"/>
<text x="30" y="150" style="text-anchor:middle; dominant-baseline:middle; font-family:Helvetica; font-size:18px; fill:black">3</text>
<rect x="50" y="130" width="40" height="40" style="stroke:black; stroke-width:2; fill:white"/>
<text x="70" y="150" style="text-anchor:middle; dominant-baseline:middle; font-family:Helvetica; font-size:18px; fill:black">1</text>
<rect x="90" y="130" width="40" height="40" style="stroke:black; stroke-width:2; fill:white"/>
<text x="110" y="150" style="text-anchor:middle; dominant-baseline:middle; font-family:Helvetica; font-size:18px; fill:black">7</text>
<rect x="130" y="130" width="40" height="40" style="stroke:black; stroke-width:2; fill:white"/>
<text x="150" y="150" style="text-anchor:middle; dominant-baseline:middle; font-family:Helvetica; font-size:18px; fill:black">2</text>
<rect x="170" y="130" width="40" height="40" style="stroke:black; stroke-width:2; fill:white"/>
<text x="190" y="150" style="text-anchor:middle; dominant-baseline:middle; font-family:Helvetica; font-size:18px; fill:black">5</text>
<rect x="210" y="130" width="40" height="40" style="stroke:black; stroke-width:2; fill:white"/>
<text x="230" y="150" style="text-anchor:middle; dominant-baseline:middle; font-family:Helvetica; font-size:18px; fill:black">8</text>
<rect x="250" y="130" width="40" height="40" style="stroke:black; stroke-width:2; fill:white"/>
<text x="270" y="150" style="text-anchor:middle; dominant-baseline:middle; font-family:Helvetica; font-size:18px; fill:black">6</text>
<rect x="290" y="130" width="40" height="40" style="stroke:black; stroke-width:2; fill:white"/>
<text x="310" y="150" style="text-anchor:middle; dominant-baseline:middle; font-family:Helvetica; font-size:18px; fill:black">9</text>
<rect x="330" y="130" width="40" height="40" style="stroke:black; stroke-width:2; fill:white"/>
<text x="350" y="150" style="text-anchor:middle; dominant-baseline:middle; font-family:Helvetica; font-size:18px; fill:black">4</text>
<rect x="10" y="170" width="40" height="40" style="stroke:black; stroke-width:2; fill:white"/>
<text x="30" y="190" style="text-anchor:middle; dominant-baseline:middle; font-family:Helvetica; font-size:18px; fill:black">5</text>
<rect x="50" y="170" width="40" height="40" style="stroke:black; stroke-width:2; fill:white"/>
<text x="70" y="190" style="text-anchor:middle; dominant-baseline:middle; font-family:Helvetica; font-size:18px; fill:black">9</text>
<rect x="90" y="170" width="40" height="40" style="stroke:black; stroke-width:2; fill:white"/>
<text x="110" y="190" style="text-anchor:middle; dominant-baseline:middle; font-family:Helvetica; font-size:18px; fill:black">6</text>
<rect x="130" y="170" width="40" height="40" style="stroke:black; stroke-width:2; fill:white"/>
<text x="150" y="190" style="text-anchor:middle; dominant-baseline:middle; font-family:Helvetica; font-size:18px; fill:black">7</text>
<rect x="170" y="170" width="40" height="40" style="stroke:black; stroke-width:2; fill:white"/>
<text x="190" y="190" style="text-anchor:middle; dominant-baseline:middle; font-family:Helvetica; font-size:18px; fill:black">3</text>
<rect x="210" y="170" width="40" height="40" style="stroke:black; stroke-width:2; fill:white"/>
<text x="230" y="190" style="text-anchor:middle; dominant-baseline:middle; font-family:Helvetica; font-size:18px; fill:black">4</text>
<rect x="250" y="170" width="40" height="40" style="stroke:black; stroke-width:2; fill:white"/>
<text x="270" y="190" style="text-anchor:middle; dominant-baseline:middle; font-family:Helvetica; font-size:18px; fill:black">1</text>
<rect x="290" y="170" width="40" height="40" style="stroke:black; stroke-width:2; fill:white"/>
<text x="310" y="190" style="text-anchor:middle; dominant-baseline:middle; font-family:Helvetica; font-size:18px; fill:black">2</text>
<rect x="330" y="170" width="40" height="40" style="stroke:black; stroke-width:2; fill:white"/>
<text x="350" y="190" style="text-anchor:middle; dominant-baseline:middle; font-family:Helvetica; font-size:18px; fill:black">8</text>
<rect x="10" y="210" width="40" height="40" style="stroke:black; stroke-width:2; fill:white"/>
<text x="30" y="230" style="text-anchor:middle; dominant-baseline:middle; font-family:Helvetica; font-size:18px; fill:black">8</text>
<rect x="50" y="210" width="40" height="40" style="stroke:black; stroke-width:2; fill:white"/>
<text x="70" y="230" style="text-anchor:middle; dominant-baseline:middle; font-family:Helvetica; font-size:18px; fill:black">4</text>
<rect x="90" y="210" width="40" height="40" style="stroke:black; stroke-width:2; fill:white"/>
<text x="110" y="230" style="text-anchor:middle; dominant-baseline:middle; font-family:Helvetica; font-size:18px; fill:black">2</text>
<rect x="130" y="210" width="40" height="40" style="stroke:black; stroke-width:2; fill:white"/>
<text x="150" y="230" style="text-anchor:middle; dominant-baseline:middle; font-family:Helvetica; font-size:18px; fill:black">1</text>
<rect x="170" y="210" width="40" height="40" style="stroke:black; stroke-width:2; fill:white"/>
<text x="190" y="230" style="text-anchor:middle; dominant-baseline:middle; font-family:Helvetica; font-size:18px; fill:black">6</text>
<rect x="210" y="210" width="40" height="40" style="stroke:black; stroke-width:2; fill:white"/>
<text x="230" y="230" style="text-anchor:middle; dominant-baseline:middle; font-family:Helvetica; font-size:18px; fill:black">9</text>
<rect x="250" y="210" width="40" height="40" style="stroke:black; stroke-width:2; fill:white"/>
<text x="270" y="230" style="text-anchor:middle; dominant-baseline:middle; font-family:Helvetica; font-size:18px; fill:black">7</text>
<rect x="290" y="210" width="40" height="40" style="stroke:black; stroke-width:2; fill:white"/>
<text x="310" y="230" style="text-anchor:middle; dominant-baseline:middle; font-family:Helvetica; font-size:18px; fill:black">3</text>
<rect x="330" y="210" width="40" height="40" style="stroke:black; stroke-width:2; fill:white"/>
<text x="350" y="230" style="text-anchor:middle; dominant-baseline:middle; font-family:Helvetica; font-size:18px; fill:black">5</text>
<rect x="10" y="250" width="40" height="40" style="stroke:black; stroke-width:2; fill:white"/>
<text x="30" y="270" style="text-anchor:middle; dominant-baseline:middle; font-family:Helvetica; font-size:18px; fill:black">7</text>
<rect x="50" y="250" width="40" height="40" style="stroke:black; stroke-width:2; fill:white"/>
<text x="70" y="270" style="text-anchor:middle; dominant-baseline:middle; font-family:Helvetica; font-size:18px; fill:black">2</text>
<rect x="90" y="250" width="40" height="40" style="stroke:black; stroke-width:2; fill:white"/>
<text x="110" y="270" style="text-anchor:middle; dominant-baseline:middle; font-family:Helvetica; font-size:18px; fill:black">5</text>
<rect x="130" y="250" width="40" height="40" style="stroke:black; stroke-width:2; fill:white"/>
<text x="150" y="270" style="text-anchor:middle; dominant-baseline:middle; font-family:Helvetica; font-size:18px; fill:black">9</text>
<rect x="170" y="250" width="40" height="40" style="stroke:black; stroke-width:2; fill:white"/>
<text x="190" y="270" style="text-anchor:middle; dominant-baseline:middle; font-family:Helvetica; font-size:18px; fill:black">4</text>
<rect x="210" y="250" width="40" height="40" style="stroke:black; stroke-width:2; fill:white"/>
<text x="230" y="270" style="text-anchor:middle; dominant-baseline:middle; font-family:Helvetica; font-size:18px; fill:black">3</text>
<rect x="250" y="250" width="40" height="40" style="stroke:black; stroke-width:2; fill:white"/>
<text x="270" y="270" style="text-anchor:middle; dominant-baseline:middle; font-family:Helvetica; font-size:18px; fill:black">8</text>
<rect x="290" y="250" width="40" height="40" style="stroke:black; stroke-width:2; fill:white"/>
<text x="310" y="270" style="text-anchor:middle; dominant-baseline:middle; font-family:Helvetica; font-size:18px; fill:black">6</text>
<rect x="330" y="250" width="40" height="40" style="stroke:black; stroke-width:2; fill:white"/>
<text x="350" y="270" style="text-anchor:middle; dominant-baseline:middle; font-family:Helvetica; font-size:18px; fill:black">1</text>
<rect x="10" y="290" width="40" height="40" style="stroke:black; stroke-width:2; fill:white"/>
<text x="30" y="310" style="text-anchor:middle; dominant-baseline:middle; font-family:Helvetica; font-size:18px; fill:black">1</text>
<rect x="50" y="290" width="40" height="40" style="stroke:black; stroke-width:2; fill:white"/>
<text x="70" y="310" style="text-anchor:middle; dominant-baseline:middle; font-family:Helvetica; font-size:18px; fill:black">3</text>
<rect x="90" y="290" width="40" height="40" style="stroke:black; stroke-width:2; fill:white"/>
<text x="110" y="310" style="text-anchor:middle; dominant-baseline:middle; font-family:Helvetica; font-size:18px; fill:black">4</text>
<rect x="130" y="290" width="40" height="40" style="stroke:black; stroke-width:2; fill:white"/>
<text x="150" y="310" style="text-anchor:middle; dominant-baseline:middle; font-family:Helvetica; font-size:18px; fill:black">6</text>
<rect x="170" y="290" width="40" height="40" style="stroke:black; stroke-width:2; fill:white"/>
<text x="190" y="310" style="text-anchor:middle; dominant-baseline:middle; font-family:Helvetica; font-size:18px; fill:black">8</text>
<rect x="210" y="290" width="40" height="40" style="stroke:black; stroke-width:2; fill:white"/>
<text x="230" y="310" style="text-anchor:middle; dominant-baseline:middle; font-family:Helvetica; font-size:18px; fill:black">7</text>
<rect x="250" y="290" width="40" height="40" style="stroke:black; stroke-width:2; fill:white"/>
<text x="270" y="310" style="text-anchor:middle; dominant-baseline:middle; font-family:Helvetica; font-size:18px; fill:black">2</text>
<rect x="290" y="290" width="40" height="40" style="stroke:black; stroke-width:2; fill:white"/>
<text x="310" y="310" style="text-anchor:middle; dominant-baseline:middle; font-family:Helvetica; font-size:18px; fill:black">5</text>
<rect x="330" y="290" width="40" height="40" style="stroke:black; stroke-width:2; fill:white"/>
<text x="350" y="310" style="text-anchor:middle; dominant-baseline:middle; font-family:Helvetica; font-size:18px; fill:black">9</text>
<rect x="10" y="330" width="40" height="40" style="stroke:black; stroke-width:2; fill:white"/>
<text x="30" y="350" style="text-anchor:middle; dominant-baseline:middle; font-family:Helvetica; font-size:18px; fill:black">6</text>
<rect x="50" y="330" width="40" height="40" style="stroke:black; stroke-width:2; fill:white"/>
<text x="70" y="350" style="text-anchor:middle; dominant-baseline:middle; font-family:Helvetica; font-size:18px; fill:black">8</text>
<rect x="90" y="330" width="40" height="40" style="stroke:black; stroke-width:2; fill:white"/>
<text x="110" y="350" style="text-anchor:middle; dominant-baseline:middle; font-family:Helvetica; font-size:18px; fill:black">9</text>
<rect x="130" y="330" width="40" height="40" style="stroke:black; stroke-width:2; fill:white"/>
<text x="150" y="350" style="text-anchor:middle; dominant-baseline:middle; font-family:Helvetica; font-size:18px; fill:black">5</text>
<rect x="170" y="330" width="40" height="40" style="stroke:black; stroke-width:2; fill:white"/>
<text x="190" y="350" style="text-anchor:middle; dominant-baseline:middle; font-family:Helvetica; font-size:18px; fill:black">2</text>
<rect x="210" y="330" width="40" height="40" style="stroke:black; stroke-width:2; fill:white"/>
<text x="230" y="350" style="text-anchor:middle; dominant-baseline:middle; font-family:Helvetica; font-size:18px; fill:black">1</text>
<rect x="250" y="330" width="40" height="40" style="stroke:black; stroke-width:2; fill:white"/>
<text x="270" y="350" style="text-anchor:middle; dominant-baseline:middle; font-family:Helvetica; font-size:18px; fill:black">3</text>
<rect x="290" y="330" width="40" height="40" style="stroke:black; stroke-width:2; fill:white"/>
<text x="310" y="350" style="text-anchor:middle; dominant-baseline:middle; font-family:Helvetica; font-size:18px; fill:black">4</text>
<rect x="330" y="330" width="40" height="40" style="stroke:black; stroke-width:2; fill:white"/>
<text x="350" y="350" style="text-anchor:middle; dominant-baseline:middle; font-family:Helvetica; font-size:18px; fill:black">7</text>
<rect x="10" y="10" width="120" height="120" style="stroke:black; stroke-width:5; fill-opacity:0.0"/>
<rect x="130" y="10" width="120" height="120" style="stroke:black; stroke-width:5; fill-opacity:0.0"/>
<rect x="250" y="10" width="120" height="120" style="stroke:black; stroke-width:5; fill-opacity:0.0"/>
<rect x="10" y="130" width="120" height="120" style="stroke:black; stroke-width:5; fill-opacity:0.0"/>
<rect x="130" y="130" width="120" height="120" style="stroke:black; stroke-width:5; fill-opacity:0.0"/>
<rect x="250" y="130" width="120" height="120" style="stroke:black; stroke-width:5; fill-opacity:0.0"/>
<rect x="10" y="250" width="120" height="120" style="stroke:black; stroke-width:5; fill-opacity:0.0"/>
<rect x="130" y="250" width="120" height="120" style="stroke:black; stroke-width:5; fill-opacity:0.0"/>
<rect x="250" y="250" width="120" height="120" style="stroke:black; stroke-width:5; fill-opacity:0.0"/>
</svg>
