<?xml version="1.0"?>
<svg width="380" height="380"
     xmlns="http://www.w3.org/2000/svg"
     xmlns:xlink="http://www.w3.org/1999/xlink">
<rect x="10" y="10" width="40" height="40" style="stroke:black; stroke-width:2; fill:white"/>
<rect x="50" y="10" width="40" height="40" style="stroke:black; stroke-width:2; fill:white"/>
<rect x="90" y="10" width="40" height="40" style="stroke:black; stroke-width:2; fill:white"/>
<rect x="130" y="10" width="40" height="40" style="stroke:black; stroke-width:2; fill:white"/>
<rect x="170" y="10" width="40" height="40" style="stroke:black; stroke-width:2; fill:white"/>
<rect x="210" y="10" width="40" height="40" style="stroke:black; stroke-width:2; fill:white"/>
<rect x="250" y="10" width="40" height="40" style="stroke:black; stroke-width:2; fill:white"/>
<rect x="290" y="10" width="40" height="40" style="stroke:black; stroke-width:2; fill:white"/>
<rect x="330" y="10" width="40" height="40" style="stroke:black; stroke-width:2; fill:white"/>
<rect x="10" y="50" width="40" height="40" style="stroke:black; stroke-width:2; fill:white"/>
<rect x="50" y="50" width="40" height="40" style="stroke:black; stroke-width:2; fill:white"/>
<rect x="90" y="50" width="40" height="40" style="stroke:black; stroke-width:2; fill:white"/>
<rect x="130" y="50" width="40" height="40" style="stroke:black; stroke-width:2; fill:white"/>
<rect x="170" y="50" width="40" height="40" style="stroke:black; stroke-width:2; fill:white"/>
<rect x="210" y="50" width="40" height="40" style="stroke:black; stroke-width:2; fill:white"/>
<rect x="250" y="50" width="40" height="40" style="stroke:black; stroke-width:2; fill:white"/>
<rect x="290" y="50" width="40" height="40" style="stroke:black; stroke-width:2; fill:white"/>
<rect x="330" y="50" width="40" height="40" style="stroke:black; stroke-width:2; fill:white"/>
<rect x="10" y="90" width="40" height="40" style="stroke:black; stroke-width:2; fill:white"/>
<rect x="50" y="90" width="40" height="40" style="stroke:black; stroke-width:2; fill:white"/>
<rect x="90" y="90" width="40" height="40" style="stroke:black; stroke-width:2; fill:white"/>
<rect x="130" y="90" width="40" height="40" style="stroke:black; stroke-width:2; fill:white"/>
<rect x="170" y="90" width="40" height="40" style="stroke:black; stroke-width:2; fill:white"/>
<rect x="210" y="90" width="40" height="40" style="stroke:black; stroke-width:2; fill:white"/>
<rect x="250" y="90" width="40" height="40" style="stroke:black; stroke-width:2; fill:white"/>
<rect x="290" y="90" width="40" height="40" style="stroke:black; stroke-width:2; fill:white"/>
<rect x="330" y="90" width="40" height="40" style="stroke:black; stroke-width:2; fill:white"/>
<rect x="10" y="130" width="40" height="40" style="stroke:black; stroke-width:2; fill:white"/>
<rect x="50" y="130" width="40" height="40" style="stroke:black; stroke-width:2; fill:white"/>
<rect x="90" y="130" width="40" height="40" style="stroke:black; stroke-width:2; fill:white"/>
<rect x="130" y="130" width="40" height="40" style="stroke:black; stroke-width:2; fill:white"/>
<rect x="170" y="130" width="40" height="40" style="stroke:black; stroke-width:2; fill:white"/>
<rect x="210" y="130" width="40" height="40" style="stroke:black; stroke-width:2; fill:white"/>
<rect x="250" y="130" width="40" height="40" style="stroke:black; stroke-width:2; fill:white"/>
<rect x="290" y="130" width="40" height="40" style="stroke:black; stroke-width:2; fill:white"/>
<rect x="330" y="130" width="40" height="40" style="stroke:black; stroke-width:2; fill:white"/>
<rect x="10" y="170" width="40" height="40" style="stroke:black; stroke-width:2; fill:white"/>
<rect x="50" y="170" width="40" height="40" style="stroke:black; stroke-width:2; fill:white"/>
<rect x="90" y="170" width="40" height="40" style="stroke:black; stroke-width:2; fill:white"/>
<rect x="130" y="170" width="40" height="40" style="stroke:black; stroke-width:2; fill:white"/>
<rect x="170" y="170" width="40" height="40" style="stroke:black; stroke-width:2; fill:white"/>
<rect x="210" y="170" width="40" height="40" style="stroke:black; stroke-width:2; fill:white"/>
<rect x="250" y="170" width="40" height="40" style="stroke:black; stroke-width:2; fill:white"/>
<rect x="290" y="170" width="40" height="40" style="stroke:black; stroke-width:2; fill:white"/>
<rect x="330" y="170" width="40" height="40" style="stroke:black; stroke-width:2; fill:white"/>
<rect x="10" y="210" width="40" height="40" style="stroke:black; stroke-width:2; fill:white"/>
<rect x="50" y="210" width="40" height="40" style="stroke:black; stroke-width:2; fill:white"/>
<rect x="90" y="210" width="40" height="40" style="stroke:black; stroke-width:2; fill:white"/>
<rect x="130" y="210" width="40" height="40" style="stroke:black; stroke-width:2; fill:white"/>
<rect x="170" y="210" width="40" height="40" style="stroke:black; stroke-width:2; fill:white"/>
<rect x="210" y="210" width="40" height="40" style="stroke:black; stroke-width:2; fill:white"/>
<rect x="250" y="210" width="40" height="40" style="stroke:black; stroke-width:2; fill:white"/>
<rect x="290" y="210" width="40" height="40" style="stroke:black; stroke-width:2; fill:white"/>
<rect x="330" y="210" width="40" height="40" style="stroke:black; stroke-width:2; fill:white"/>
<rect x="10" y="250" width="40" height="40" style="stroke:black; stroke-width:2; fill:white"/>
<rect x="50" y="250" width="40" height="40" style="stroke:black; stroke-width:2; fill:white"/>
<rect x="90" y="250" width="40" height="40" style="stroke:black; stroke-width:2; fill:white"/>
<rect x="130" y="250" width="40" height="40" style="stroke:black; stroke-width:2; fill:white"/>
<rect x="170" y="250" width="40" height="40" style="stroke:black; stroke-width:2; fill:white"/>
<rect x="210" y="250" width="40" height="40" style="stroke:black; stroke-width:2; fill:white"/>
<rect x="250" y="250" width="40" height="40" style="stroke:black; stroke-width:2; fill:white"/>
<rect x="290" y="250" width="40" height="40" style="stroke:black; stroke-width:2; fill:white"/>
<rect x="330" y="250" width="40" height="40" style="stroke:black; stroke-width:2; fill:white"/>
<rect x="10" y="290" width="40" height="40" style="stroke:black; stroke-width:2; fill:white"/>
<rect x="50" y="290" width="40" height="40" style="stroke:black; stroke-width:2; fill:white"/>
<rect x="90" y="290" width="40" height="40" style="stroke:black; stroke-width:2; fill:white"/>
<rect x="130" y="290" width="40" height="40" style="stroke:black; stroke-width:2; fill:white"/>
<rect x="170" y="290" width="40" height="40" style="stroke:black; stroke-width:2; fill:white"/>
<rect x="210" y="290" width="40" height="40" style="stroke:black; stroke-width:2; fill:white"/>
<rect x="250" y="290" width="40" height="40" style="stroke:black; stroke-width:2; fill:white"/>
<rect x="290" y="290" width="40" height="40" style="stroke:black; stroke-width:2; fill:white"/>
<rect x="330" y="290" width="40" height="40" style="stroke:black; stroke-width:2; fill:white"/>
<rect x="10" y="330" width="40" height="40" style="stroke:black; stroke-width:2; fill:white"/>
<rect x="50" y="330" width="40" height="40" style="stroke:black; stroke-width:2; fill:white"/>
<rect x="90" y="330" width="40" height="40" style="stroke:black; stroke-width:2; fill:white"/>
<rect x="130" y="330" width="40" height="40" style="stroke:black; stroke-width:2; fill:white"/>
<rect x="170" y="330" width="40" height="40" style="stroke:black; stroke-width:2; fill:white"/>
<rect x="210" y="330" width="40" height="40" style="stroke:black; stroke-width:2; fill:white"/>
<rect x="250" y="330" width="40" height="40" style="stroke:black; stroke-width:2; fill:white"/>
<rect x="290" y="330" width="40" height="40" style="stroke:black; stroke-width:2; fill:white"/>
<rect x="330" y="330" width="40" height="40" style="stroke:black; stroke-width:2; fill:white"/>
<rect x="10" y="10" width="120" height="120" style="stroke:black; stroke-width:5; fill-opacity:0.0"/>
<rect x="130" y="10" width="120" height="120" style="stroke:black; stroke-width:5; fill-opacity:0.0"/>
<rect x="250" y="10" width="120" height="120" style="stroke:black; stroke-width:5; fill-opacity:0.0"/>
<rect x="10" y="130" width="120" height="120" style="stroke:black; stroke-width:5; fill-opacity:0.0"/>
<rect x="130" y="130" width="120" height="120" style="stroke:black; stroke-width:5; fill-opacity:0.0"/>
<rect x="250" y="130" width="120" height="120" style="stroke:black; stroke-width:5; fill-opacity:0.0"/>
<rect x="10" y="250" width="120" height="120" style="stroke:black; stroke-width:5; fill-opacity:0.0"/>
<rect x="130" y="250" width="120" height="120" style="stroke:black; stroke-width:5; fill-opacity:0.0"/>
<rect x="250" y="250" width="120" height="120" style="stroke:black; stroke-width:5; fill-opacity:0.0"/>
</svg>
